<svg height="512pt" viewBox="-44 0 512 512" width="512pt" xmlns="http://www.w3.org/2000/svg"><path d="m10 172.375v-64.386719l97.988281-97.988281h286.03125c11.046875 0 20 8.953125 20 20v452c0 11.046875-8.953125 20-20 20h-364.019531c-11.046875 0-20-8.953125-20-20zm0 0" fill="#fff"/><path d="m255.921875 129.375c-18.546875 6.425781-35.960937 17.042969-50.773437 31.851562-52.328126 52.332032-52.328126 137.175782 0 189.507813 14.828124 14.824219 32.265624 25.445313 50.832031 31.871094 18.546875-6.425781 35.960937-17.042969 50.773437-31.851563 52.328125-52.328125 52.328125-137.175781 0-189.503906-14.828125-14.828125-32.265625-25.449219-50.832031-31.875zm0 0" fill="#ff5d5d"/><path d="m87.988281 107.988281h-77.988281l97.988281-97.984375v77.984375c0 11.046875-8.957031 20-20 20zm0 0" fill="#ffc66c"/><path d="m414.019531 241.019531c-2.628906 0-5.210937 1.0625-7.070312 2.921875-1.859375 1.867188-2.929688 4.4375-2.929688 7.070313 0 2.636719 1.070313 5.207031 2.929688 7.078125 1.859375 1.859375 4.441406 2.929687 7.070312 2.929687 2.628907 0 5.210938-1.070312 7.070313-2.929687 1.859375-1.871094 2.929687-4.441406 2.929687-7.078125 0-2.632813-1.070312-5.203125-2.929687-7.070313-1.859375-1.863281-4.441406-2.921875-7.070313-2.921875zm0 0"/><path d="m424.019531 30c0-16.542969-13.457031-30-30-30h-286.03125c-2.652343 0-5.199219 1.054688-7.074219 2.929688l-97.984374 97.988281c-1.875 1.878906-2.929688 4.421875-2.929688 7.070312v374.011719c0 16.542969 13.457031 30 30 30h364.019531c16.542969 0 30-13.457031 30-30v-186c0-5.523438-4.476562-10-10-10-5.523437 0-10 4.476562-10 10v186c0 5.515625-4.484375 10-10 10h-364.019531c-5.515625 0-10-4.484375-10-10v-364.011719h67.988281c16.539063 0 30-13.457031 30-30v-67.988281h276.03125c5.515625 0 10 4.484375 10 10v182c0 5.523438 4.476563 10 10 10 5.523438 0 10-4.476562 10-10zm-336.03125 67.988281h-53.847656l63.847656-63.847656v53.847656c0 5.515625-4.488281 10-10 10zm0 0"/><path d="m124.109375 168.527344.140625-.140625c.003906-.003907.066406-.066407.070312-.066407 3.902344-3.90625 3.871094-10.203124-.03125-14.109374-3.902343-3.90625-10.261718-3.878907-14.167968.023437l-.234375.234375c-3.882813 3.925781-3.847657 10.257812.082031 14.140625 1.949219 1.925781 4.492188 2.886719 7.027344 2.886719 2.578125 0 5.15625-.988282 7.113281-2.96875zm0 0"/><path d="m99.722656 182.125c-4.828125-2.6875-10.917968-.953125-13.601562 3.871094-14.929688 26.8125-20.917969 58.421875-16.871094 89 4.183594 31.597656 18.335938 60.234375 40.925781 82.828125 27.199219 27.195312 63.359375 42.175781 101.824219 42.175781s74.625-14.980469 101.824219-42.175781c27.195312-27.199219 42.175781-63.359375 42.175781-101.824219s-14.980469-74.625-42.175781-101.824219c-46.40625-46.402343-118.273438-55.601562-174.769531-22.371093-4.761719 2.800781-6.351563 8.929687-3.550782 13.691406 2.800782 4.757812 8.929688 6.347656 13.691406 3.546875 48.640626-28.609375 110.523438-20.6875 150.484376 19.277343 48.347656 48.34375 48.347656 127.015626 0 175.359376-23.417969 23.421874-54.558594 36.320312-87.679688 36.320312s-64.261719-12.898438-87.679688-36.320312c-38.992187-38.992188-47.515624-99.832032-20.722656-147.953126 2.683594-4.828124.949219-10.914062-3.875-13.601562zm0 0"/><path d="m136.375 326.046875c5.269531 1.667969 10.882812-1.261719 12.546875-6.527344l10.363281-32.855469h42.855469l10.363281 32.855469c1.347656 4.265625 5.285156 6.996094 9.535156 6.996094.996094 0 2.011719-.152344 3.011719-.46875 5.265625-1.660156 8.1875-7.277344 6.527344-12.542969l-8.484375-26.894531c5.027344-.523437 8.945312-4.777344 8.945312-9.945313 0-5.519531-4.476562-10-10-10h-5.238281l-26.550781-84.152343c-1.3125-4.160157-5.175781-6.992188-9.539062-6.992188-4.363282 0-8.222657 2.832031-9.535157 6.992188l-26.554687 84.152343h-5.238282c-5.523437 0-10 4.480469-10 10 0 5.167969 3.917969 9.421876 8.945313 9.945313l-8.484375 26.894531c-1.65625 5.265625 1.265625 10.882813 6.53125 12.542969zm44.339844-107.292969 15.113281 47.910156h-30.230469zm0 0"/><path d="m261.65625 175.519531c-5.519531 0-10 4.476563-10 10v11.003907h-11c-5.523438 0-10 4.476562-10 10 0 5.519531 4.476562 10 10 10h11v11c0 5.523437 4.480469 10 10 10 5.523438 0 10-4.476563 10-10v-11h11.003906c5.523438 0 10-4.480469 10-10 0-5.523438-4.476562-10-10-10h-11.003906v-11.003907c0-5.523437-4.476562-10-10-10zm0 0"/></svg>