<?xml version="1.0" encoding="iso-8859-1"?>
<!-- Generator: Adobe Illustrator 19.0.0, SVG Export Plug-In . SVG Version: 6.00 Build 0)  -->
<svg version="1.1" id="Capa_1" xmlns="http://www.w3.org/2000/svg" xmlns:xlink="http://www.w3.org/1999/xlink" x="0px" y="0px"
	 viewBox="0 0 512 512" style="enable-background:new 0 0 512 512;" xml:space="preserve">
<g transform="matrix(1.25 0 0 -1.25 0 45)">
	<path style="fill:#D99E82;" d="M347.022-259.822c0-25.133-20.378-45.511-45.511-45.511H51.2c-25.133,0-45.511,20.378-45.511,45.511
		V-9.511C5.689,15.622,26.067,36,51.2,36h250.311c25.133,0,45.511-20.378,45.511-45.511L347.022-259.822L347.022-259.822z"/>
	<g>
		<g>
			<g>
				<path style="fill:#5C913B;" d="M324.267-259.822c0-12.561-10.183-22.756-22.756-22.756H51.2
					c-12.561,0-22.756,10.195-22.756,22.756V-9.511c0,12.572,10.195,22.756,22.756,22.756h250.311
					c12.572,0,22.756-10.183,22.756-22.756L324.267-259.822L324.267-259.822z"/>
			</g>
		</g>
	</g>
	<g>
		<path style="fill:#FFFFFF;" d="M126.032-63.879c4.005,0,7.099-1.82,7.099-6.008c0-4.175-3.095-6.008-6.554-6.008h-30.39
			c-3.994,0-7.089,1.832-7.089,6.008c0,1.912,1.183,3.55,2.093,4.642c7.555,9,15.736,17.192,22.653,27.205
			c1.638,2.367,3.174,5.177,3.174,8.454c0,3.732-2.822,7.009-6.542,7.009c-10.468,0-5.461-14.734-14.188-14.734
			c-4.369,0-6.644,3.084-6.644,6.633c0,11.469,10.183,20.651,21.379,20.651c11.185,0,20.196-7.373,20.196-18.921
			c0-12.641-14.108-25.202-21.834-34.93L126.032-63.879L126.032-63.879z"/>
		<path style="fill:#FFFFFF;" d="M52.222-113.867c0,3.277,2.093,5.461,5.45,5.461c3.368,0,5.461-2.184,5.461-5.461v-13.198h13.199
			c3.368,0,5.461-2.174,5.461-5.45c0-3.277-2.093-5.461-5.461-5.461H63.133v-13.187c0-3.277-2.093-5.461-5.461-5.461
			c-3.356,0-5.45,2.184-5.45,5.461v13.187H39.035c-3.368,0-5.461,2.184-5.461,5.461c0,3.277,2.093,5.45,5.461,5.45h13.187V-113.867z
			"/>
		<path style="fill:#FFFFFF;" d="M126.028-143.522c4.005,0,7.089-1.82,7.089-6.008c0-4.175-3.084-6.008-6.542-6.008h-30.39
			c-3.994,0-7.089,1.832-7.089,6.008c0,1.912,1.183,3.55,2.093,4.642c7.555,9,15.736,17.192,22.653,27.205
			c1.638,2.367,3.174,5.177,3.174,8.454c0,3.732-2.822,7.009-6.542,7.009c-10.468,0-5.461-14.734-14.2-14.734
			c-4.369,0-6.633,3.084-6.633,6.633c0,11.469,10.183,20.651,21.379,20.651c11.185,0,20.184-7.373,20.184-18.921
			c0-12.641-14.097-25.202-21.823-34.93L126.028-143.522L126.028-143.522z"/>
		<path style="fill:#FFFFFF;" d="M135.583-179.833H40.772c-3.151,0-5.689,2.548-5.689,5.689s2.537,5.689,5.689,5.689h94.811
			c3.141,0,5.689-2.548,5.689-5.689S138.724-179.833,135.583-179.833"/>
	</g>
	<g>
		<path style="fill:#9266CC;" d="M403.911-373.6v39.822c0,37.706-41.939,62.578-79.644,62.578H187.733
			c-37.695,0-79.644-24.872-79.644-62.578V-373.6H403.911z"/>
		<g>
			<path style="fill:#292F33;" d="M255.366-21.672c46.706,0,124.564-23.359,124.564-124.564s0-124.564-23.359-124.564
				s-54.5,23.359-101.205,23.359S178.179-270.8,154.161-270.8c-26.021,0-23.359,93.423-23.359,124.564
				C130.802-45.031,208.66-21.672,255.366-21.672"/>
			<path style="fill:#292F33;" d="M199.111-271.2h112.356c0,0-14.291-39.822-56.184-39.822
				C213.402-311.022,199.111-271.2,199.111-271.2"/>
		</g>
		<path style="fill:#F7DECE;" d="M214.222-271.423c0-16.839,24.712-28.217,41.779-28.217s41.643,11.378,41.643,28.217v36.466
			h-83.422L214.222-271.423L214.222-271.423z"/>
		<path style="fill:#EEC2AD;" d="M214.144-250.478c11.64-13.141,26.067-16.703,41.745-16.703c15.69,0,30.117,3.561,41.756,16.703
			v33.405h-83.501L214.144-250.478L214.144-250.478z"/>
		<path style="fill:#F7DECE;" d="M161.95-142.828c0,66.378,41.825,120.184,93.412,120.184c51.598,0,93.423-53.805,93.423-120.184
			c0-66.367-41.825-117.032-93.423-117.032C203.775-259.86,161.95-209.194,161.95-142.828"/>
		<path style="fill:#DF1F32;" d="M255.366-231.867c-18.261,0-27.83,9.034-28.854,10.069c-3.049,3.027-3.049,7.964,0,11.002
			c3.015,3.003,7.873,3.027,10.923,0.069c0.398-0.364,6.292-5.587,17.932-5.587c11.821,0,17.715,5.382,17.943,5.598
			c3.117,2.913,7.999,2.822,10.957-0.216c2.958-3.06,2.958-7.873-0.045-10.866C283.196-222.833,273.639-231.867,255.366-231.867"/>
		<path style="fill:#292F33;" d="M139.094-180.178c-0.239,11.378-0.5,2.548-0.5,5.291c0,38.935,23.359-5.62,23.359,22.107
			c0,27.75,15.565,30.527,31.13,46.092c7.794,7.794,23.359,23.052,23.359,23.052s38.924-23.518,70.065-23.518
			s62.282-15.644,62.282-46.785s23.359,18.022,23.359-20.901c0-2.776-0.262,6.042-0.455-5.336h8.169
			c0.079,22.756,0.079,21.891,0.079,36.431c0,101.205-77.858,138.888-124.575,138.888c-46.706,0-124.552-37.057-124.552-138.263
			c0-9.023-0.228-14.302,0.091-37.057h8.19V-180.178z"/>
		<g>
			<path style="fill:#662113;" d="M217.411-167.508L217.411-167.508c-5.291,0-9.626,4.335-9.626,9.626v9.614
				c0,5.291,4.335,9.626,9.626,9.626c5.291,0,9.637-4.335,9.637-9.626v-9.614C227.048-163.174,222.702-167.508,217.411-167.508"/>
			<path style="fill:#662113;" d="M294.377-167.508L294.377-167.508c-5.291,0-9.626,4.335-9.626,9.626v9.614
				c0,5.291,4.335,9.626,9.626,9.626c5.291,0,9.626-4.335,9.626-9.626v-9.614C304.003-163.174,299.668-167.508,294.377-167.508"/>
		</g>
		<path style="fill:#C1694F;" d="M265.522-197.244h-19.24c-2.662,0-4.813,2.15-4.813,4.813v1.741c0,2.662,2.15,4.824,4.813,4.824
			h19.24c2.639,0,4.813-2.162,4.813-4.824v-1.741C270.335-195.094,268.162-197.244,265.522-197.244"/>
	</g>
	<g>
		<path style="fill:#F7DECE;" d="M181.41-145.314c0-16.475-8.351-29.832-18.648-29.832s-18.648,13.357-18.648,29.832
			s8.351,29.844,18.648,29.844C173.059-115.471,181.41-128.839,181.41-145.314"/>
		<path style="fill:#F7DECE;" d="M367.878-145.314c0-16.475-8.34-29.832-18.648-29.832c-10.297,0-18.637,13.357-18.637,29.832
			s8.34,29.844,18.637,29.844C359.538-115.471,367.878-128.839,367.878-145.314"/>
	</g>
	<g>
		<path style="fill:#744EAA;" d="M256-307.856c0,0,38.469-28.376,46.58-31.596c1.775-0.717-4.175,41.597-4.175,41.597h-84.81
			c0,0-5.951-43.02-2.662-41.244C218.226-335.208,256-307.856,256-307.856"/>
		<g>
			<path style="fill:#CBB7EA;" d="M202.422-258.88c6.417-6.44,53.578-38.491,53.578-38.491s-24.178-14.131-46.49-40.22
				c-2.219-2.617-17.556,52.622-18.022,64.955C191.352-269.189,199.339-255.797,202.422-258.88"/>
			<path style="fill:#CBB7EA;" d="M309.822-258.88c-6.44-6.44-53.578-38.491-53.578-38.491s24.178-14.131,46.467-40.22
				c2.219-2.617,17.534,52.622,17.999,64.955C320.847-269.189,312.894-255.797,309.822-258.88"/>
		</g>
		<path style="fill:#744EAA;" d="M267.378-373.6h-22.756v68.267h22.756V-373.6z"/>
		<g>
			<path style="fill:#CBB7EA;" d="M267.378-356.533c0-6.28-5.097-11.378-11.378-11.378c-6.28,0-11.378,5.097-11.378,11.378
				c0,6.28,5.097,11.378,11.378,11.378C262.28-345.156,267.378-350.253,267.378-356.533"/>
			<path style="fill:#CBB7EA;" d="M267.378-322.4c0-6.28-5.097-11.378-11.378-11.378c-6.28,0-11.378,5.097-11.378,11.378
				c0,6.28,5.097,11.378,11.378,11.378C262.28-311.022,267.378-316.12,267.378-322.4"/>
		</g>
	</g>
</g>
<g>
</g>
<g>
</g>
<g>
</g>
<g>
</g>
<g>
</g>
<g>
</g>
<g>
</g>
<g>
</g>
<g>
</g>
<g>
</g>
<g>
</g>
<g>
</g>
<g>
</g>
<g>
</g>
<g>
</g>
</svg>
