<?xml version="1.0" encoding="iso-8859-1"?>
<!-- Generator: Adobe Illustrator 19.0.0, SVG Export Plug-In . SVG Version: 6.00 Build 0)  -->
<svg version="1.1" id="Capa_1" xmlns="http://www.w3.org/2000/svg" xmlns:xlink="http://www.w3.org/1999/xlink" x="0px" y="0px"
	 viewBox="0 0 512.001 512.001" style="enable-background:new 0 0 512.001 512.001;" xml:space="preserve">
<path style="fill:#A0E557;" d="M134.635,399.694v102.284H10V365.14c0-32.266,26.157-58.422,58.422-58.422H82.27
	c25.929,0,51.189,8.234,72.136,23.516l90.552,66.059c6.939,5.062,11.042,13.134,11.042,21.723l0,0
	c0,20.927-22.852,33.832-40.773,23.027l-96.172-57.986"/>
<path style="fill:#72D8FF;" d="M377.365,399.694v102.284H502V365.14c0-32.266-26.157-58.422-58.422-58.422H429.73
	c-25.929,0-51.189,8.234-72.136,23.516l-90.552,66.059C260.103,401.355,256,409.427,256,418.016l0,0
	c0,20.927,22.852,33.832,40.773,23.027l96.172-57.986"/>
<g>
	<path style="fill:#FCC69D;" d="M72.317,207.01L72.317,207.01c-24.092,0-43.622,19.53-43.622,43.622v12.464
		c0,24.092,19.53,43.622,43.622,43.622l0,0c24.092,0,43.622-19.53,43.622-43.622v-12.464
		C115.939,226.541,96.409,207.01,72.317,207.01z"/>
	<path style="fill:#FCC69D;" d="M439.683,207.01L439.683,207.01c24.092,0,43.622,19.53,43.622,43.622v12.464
		c0,24.092-19.53,43.622-43.622,43.622l0,0c-24.092,0-43.622-19.53-43.622-43.622v-12.464
		C396.061,226.541,415.591,207.01,439.683,207.01z"/>
</g>
<path d="M474.277,304.021c11.627-9.844,19.028-24.532,19.028-40.924v-12.464c0-29.567-24.055-53.622-53.622-53.622
	s-53.622,24.055-53.622,53.622v12.464c0,14.249,5.597,27.207,14.694,36.82c-17.581,3.922-34.205,11.406-49.055,22.239l-90.552,66.06
	c-1.872,1.366-3.588,2.901-5.148,4.568c-1.56-1.667-3.277-3.202-5.148-4.568l-90.552-66.06
	c-14.85-10.833-31.474-18.317-49.055-22.239c9.097-9.613,14.695-22.571,14.695-36.82v-12.464c0-29.567-24.055-53.622-53.622-53.622
	s-53.622,24.055-53.622,53.622v12.464c0,16.392,7.401,31.08,19.028,40.924C15.374,315.293,0,338.448,0,365.14v136.839
	c0,5.522,4.478,10,10,10h124.635c5.522,0,10-4.478,10-10v-91.823l65.429,39.45c11.547,6.962,25.448,7.159,37.188,0.53
	c3.316-1.873,6.238-4.187,8.748-6.829c2.51,2.643,5.432,4.957,8.748,6.829c5.713,3.227,11.938,4.836,18.153,4.836
	c6.558,0,13.107-1.792,19.034-5.366l65.43-39.45v91.823c0,5.522,4.478,10,10,10H502c5.522,0,10-4.478,10-10v-36.13
	c0-5.522-4.478-10-10-10s-10,4.478-10,10v26.13H387.365v-92.285c0-0.518-0.052-1.023-0.127-1.52l10.87-6.554
	c4.73-2.852,6.252-8.997,3.4-13.727c-2.853-4.73-9.001-6.255-13.727-3.4l-96.173,57.986c-5.287,3.188-11.652,3.278-17.025,0.242
	c-5.374-3.035-8.583-8.532-8.583-14.705c0-5.375,2.593-10.476,6.936-13.644l90.552-66.06c19.365-14.128,42.271-21.595,66.243-21.595
	h13.847c26.7,0,48.423,21.722,48.423,48.422v17.487c0,5.522,4.478,10,10,10s10-4.478,10-10v-17.487
	C512,338.448,496.626,315.293,474.277,304.021z M38.695,250.633c0-18.539,15.083-33.622,33.622-33.622s33.622,15.083,33.622,33.622
	v12.464c0,18.539-15.083,33.622-33.622,33.622s-33.622-15.083-33.622-33.622V250.633z M237.417,432.721
	c-5.376,3.035-11.74,2.944-17.026-0.242l-96.172-57.986c-4.729-2.854-10.876-1.329-13.727,3.4c-2.852,4.729-1.33,10.875,3.4,13.727
	l10.858,6.547c-0.076,0.498-0.116,1.008-0.116,1.527v92.285H20V365.14c0-26.7,21.723-48.422,48.423-48.422H82.27
	c23.972,0,46.878,7.467,66.243,21.595l90.552,66.06c4.343,3.168,6.936,8.269,6.936,13.644
	C246,424.189,242.791,429.686,237.417,432.721z M406.061,250.633c0-18.539,15.083-33.622,33.622-33.622s33.622,15.083,33.622,33.622
	v12.464c0,18.539-15.083,33.622-33.622,33.622s-33.622-15.083-33.622-33.622V250.633z"/>
<path d="M502,413.02c-2.63,0-5.21,1.061-7.07,2.92c-1.86,1.87-2.93,4.44-2.93,7.07c0,2.64,1.069,5.21,2.93,7.08
	c1.86,1.86,4.44,2.93,7.07,2.93s5.21-1.069,7.069-2.93c1.86-1.87,2.931-4.44,2.931-7.08c0-2.63-1.07-5.21-2.931-7.07
	C507.21,414.081,504.63,413.02,502,413.02z"/>
<path d="M124.311,145.811l64.187-64.188l76.473,76.473c1.953,1.953,4.512,2.929,7.071,2.929s5.118-0.976,7.071-2.929L403.044,34.165
	v8.857c0,5.523,4.478,10,10,10s10-4.477,10-10v-33c0-5.523-4.478-10-10-10h-33c-5.522,0-10,4.477-10,10s4.478,10,10,10h8.857
	l-116.86,116.861L195.568,60.41c-1.876-1.875-4.419-2.929-7.071-2.929s-5.195,1.054-7.071,2.929l-71.258,71.258
	c-3.905,3.906-3.905,10.237,0,14.143C114.074,149.717,120.404,149.716,124.311,145.811z"/>
<path d="M92,173.981c2.63,0,5.21-1.07,7.069-2.93c1.86-1.86,2.931-4.44,2.931-7.07c0-2.64-1.07-5.21-2.931-7.07
	c-1.859-1.86-4.439-2.93-7.069-2.93s-5.21,1.07-7.07,2.93c-1.86,1.86-2.93,4.44-2.93,7.07s1.069,5.21,2.93,7.07
	S89.37,173.981,92,173.981z"/>
<g>
</g>
<g>
</g>
<g>
</g>
<g>
</g>
<g>
</g>
<g>
</g>
<g>
</g>
<g>
</g>
<g>
</g>
<g>
</g>
<g>
</g>
<g>
</g>
<g>
</g>
<g>
</g>
<g>
</g>
</svg>
