<?xml version="1.0" encoding="iso-8859-1"?>
<!-- Generator: Adobe Illustrator 19.0.0, SVG Export Plug-In . SVG Version: 6.00 Build 0)  -->
<svg version="1.1" id="Capa_1" xmlns="http://www.w3.org/2000/svg" xmlns:xlink="http://www.w3.org/1999/xlink" x="0px" y="0px"
	 viewBox="0 0 512 512" style="enable-background:new 0 0 512 512;" xml:space="preserve">
<path style="fill:#4DB5FF;" d="M8.533,341.333v-25.6c0-23.561,19.106-42.667,42.667-42.667l0,0
	c23.561,0,42.667,19.106,42.667,42.667v25.6"/>
<circle style="fill:#FFD4B0;" cx="51.2" cy="221.867" r="25.6"/>
<rect x="76.8" y="8.533" style="fill:#FFA511;" width="358.4" height="153.6"/>
<path style="fill:#EF2648;" d="M341.333,51.2c-28.279,0-51.2,15.283-51.2,34.133s22.921,34.133,51.2,34.133
	c9.762,0.077,19.43-1.869,28.399-5.734l-28.399-28.399V51.2z"/>
<g>
	<path style="fill:#FFDC13;" d="M392.533,85.333c0-18.85-22.921-34.133-51.2-34.133v34.133l28.399,28.399
		C383.471,107.605,392.533,97.178,392.533,85.333z"/>
	<path style="fill:#FFDC13;" d="M247.467,128H179.2c-4.71,0-8.533-3.823-8.533-8.533c0-4.71,3.823-8.533,8.533-8.533h68.267
		c4.71,0,8.533,3.823,8.533,8.533C256,124.177,252.177,128,247.467,128z"/>
	<path style="fill:#FFDC13;" d="M128,59.733h-17.067c-4.71,0-8.533-3.823-8.533-8.533s3.823-8.533,8.533-8.533H128
		c4.71,0,8.533,3.823,8.533,8.533S132.71,59.733,128,59.733z"/>
	<path style="fill:#FFDC13;" d="M247.467,59.733H153.6c-4.71,0-8.533-3.823-8.533-8.533s3.823-8.533,8.533-8.533h93.867
		c4.71,0,8.533,3.823,8.533,8.533S252.177,59.733,247.467,59.733z"/>
	<path style="fill:#FFDC13;" d="M204.8,93.867h-93.867c-4.71,0-8.533-3.823-8.533-8.533c0-4.71,3.823-8.533,8.533-8.533H204.8
		c4.71,0,8.533,3.823,8.533,8.533C213.333,90.044,209.51,93.867,204.8,93.867z"/>
	<path style="fill:#FFDC13;" d="M247.467,93.867H230.4c-4.71,0-8.533-3.823-8.533-8.533c0-4.71,3.823-8.533,8.533-8.533h17.067
		c4.71,0,8.533,3.823,8.533,8.533C256,90.044,252.177,93.867,247.467,93.867z"/>
	<path style="fill:#FFDC13;" d="M153.6,128h-42.667c-4.71,0-8.533-3.823-8.533-8.533c0-4.71,3.823-8.533,8.533-8.533H153.6
		c4.71,0,8.533,3.823,8.533,8.533C162.133,124.177,158.31,128,153.6,128z"/>
</g>
<path style="fill:#F08015;" d="M357.794,53.035c20.233,4.574,34.739,17.289,34.739,32.299c0,11.844-9.062,22.272-22.801,28.399
	c-8.969,3.866-18.637,5.811-28.399,5.734c-25.284,0-46.242-12.228-50.398-28.297c-15.556,7.39-31.471,13.986-47.693,19.763h4.224
	c4.71,0,8.533,3.823,8.533,8.533c0,4.71-3.823,8.533-8.533,8.533h-63.249c-35.26,7.97-71.27,12.203-107.418,12.638v21.495h358.4
	V8.533h-20.608C396.723,24.67,377.745,39.543,357.794,53.035z"/>
<path style="fill:#B20D24;" d="M341.333,63.59c-16.273,10.121-33.101,19.328-50.398,27.58c4.156,16.068,25.114,28.297,50.398,28.297
	c9.762,0.077,19.43-1.869,28.399-5.734l-28.399-28.399V63.59z"/>
<g>
	<path style="fill:#E5AF17;" d="M341.333,85.333l28.399,28.399c13.739-6.127,22.801-16.555,22.801-28.399
		c0-15.01-14.507-27.725-34.739-32.299c-5.393,3.644-10.923,7.108-16.461,10.556V85.333z"/>
	<path style="fill:#E5AF17;" d="M247.467,128c4.71,0,8.533-3.823,8.533-8.533c0-4.71-3.823-8.533-8.533-8.533H243.2
		c-19.311,6.869-39.023,12.57-59.025,17.067H247.467z"/>
</g>
<path style="fill:#EDC4A2;" d="M64.461,200.073c2.475,3.985,3.789,8.576,3.806,13.261c0,14.14-11.46,25.6-25.6,25.6
	c-4.685-0.017-9.276-1.331-13.261-3.806c7.287,12.066,22.989,15.94,35.055,8.653c12.066-7.287,15.94-22.989,8.653-35.055
	C70.972,205.184,68.002,202.214,64.461,200.073z"/>
<circle style="fill:#FFD4B0;" cx="187.733" cy="221.867" r="25.6"/>
<path style="fill:#EDC4A2;" d="M200.994,200.073c2.475,3.985,3.789,8.576,3.806,13.261c0,14.14-11.46,25.6-25.6,25.6
	c-4.685-0.017-9.276-1.331-13.261-3.806c7.287,12.066,22.989,15.94,35.055,8.653c12.066-7.287,15.94-22.989,8.653-35.055
	C207.505,205.184,204.535,202.214,200.994,200.073z"/>
<circle style="fill:#FFD4B0;" cx="324.267" cy="221.867" r="25.6"/>
<path style="fill:#EDC4A2;" d="M337.527,200.073c2.475,3.985,3.789,8.576,3.806,13.261c0,14.14-11.46,25.6-25.6,25.6
	c-4.685-0.017-9.276-1.331-13.261-3.806c7.287,12.066,22.989,15.94,35.055,8.653c12.066-7.287,15.94-22.989,8.653-35.055
	C344.038,205.184,341.069,202.214,337.527,200.073z"/>
<circle style="fill:#FFD4B0;" cx="460.8" cy="221.867" r="25.6"/>
<path style="fill:#EDC4A2;" d="M474.061,200.073c2.475,3.985,3.789,8.576,3.806,13.261c0,14.14-11.46,25.6-25.6,25.6
	c-4.685-0.017-9.276-1.331-13.261-3.806c7.287,12.066,22.989,15.94,35.055,8.653c12.066-7.287,15.94-22.989,8.653-35.055
	C480.572,205.184,477.602,202.214,474.061,200.073z"/>
<circle style="fill:#FFD4B0;" cx="51.2" cy="384" r="25.6"/>
<path style="fill:#EDC4A2;" d="M64.461,362.206c2.475,3.985,3.789,8.576,3.806,13.261c0,14.14-11.46,25.6-25.6,25.6
	c-4.685-0.017-9.276-1.331-13.261-3.806c7.287,12.066,22.989,15.94,35.055,8.653s15.94-22.989,8.653-35.055
	C70.972,367.317,68.002,364.348,64.461,362.206z"/>
<circle style="fill:#FFD4B0;" cx="187.733" cy="384" r="25.6"/>
<path style="fill:#EDC4A2;" d="M200.994,362.206c2.475,3.985,3.789,8.576,3.806,13.261c0,14.14-11.46,25.6-25.6,25.6
	c-4.685-0.017-9.276-1.331-13.261-3.806c7.287,12.066,22.989,15.94,35.055,8.653s15.94-22.989,8.653-35.055
	C207.505,367.317,204.535,364.348,200.994,362.206z"/>
<circle style="fill:#FFD4B0;" cx="324.267" cy="384" r="25.6"/>
<path style="fill:#EDC4A2;" d="M337.527,362.206c2.475,3.985,3.789,8.576,3.806,13.261c0,14.14-11.46,25.6-25.6,25.6
	c-4.685-0.017-9.276-1.331-13.261-3.806c7.287,12.066,22.989,15.94,35.055,8.653c12.066-7.287,15.94-22.989,8.653-35.055
	C344.038,367.317,341.069,364.348,337.527,362.206z"/>
<circle style="fill:#FFD4B0;" cx="460.8" cy="384" r="25.6"/>
<path style="fill:#EDC4A2;" d="M474.061,362.206c2.475,3.985,3.789,8.576,3.806,13.261c0,14.14-11.46,25.6-25.6,25.6
	c-4.685-0.017-9.276-1.331-13.261-3.806c7.287,12.066,22.989,15.94,35.055,8.653c12.066-7.287,15.94-22.989,8.653-35.055
	C480.572,367.317,477.602,364.348,474.061,362.206z"/>
<path style="fill:#4D97FF;" d="M17.067,332.8c-2.884,0-5.717-0.179-8.533-0.427v8.96h85.333v-25.6
	c-0.017-6.11-1.357-12.134-3.934-17.673C72.132,320.051,45.355,332.817,17.067,332.8z"/>
<path style="fill:#4DB5FF;" d="M145.067,341.333v-25.6c0-23.561,19.106-42.667,42.667-42.667l0,0
	c23.561,0,42.667,19.106,42.667,42.667v25.6"/>
<path style="fill:#4D97FF;" d="M153.6,332.8c-2.884,0-5.717-0.179-8.533-0.427v8.96H230.4v-25.6
	c-0.017-6.11-1.357-12.134-3.934-17.673C208.666,320.051,181.888,332.817,153.6,332.8z"/>
<path style="fill:#4DB5FF;" d="M281.6,341.333v-25.6c0-23.561,19.106-42.667,42.667-42.667l0,0
	c23.561,0,42.667,19.106,42.667,42.667v25.6"/>
<path style="fill:#4D97FF;" d="M290.133,332.8c-2.884,0-5.717-0.179-8.533-0.427v8.96h85.333v-25.6
	c-0.017-6.11-1.357-12.134-3.934-17.673C345.199,320.051,318.421,332.817,290.133,332.8z"/>
<path style="fill:#4DB5FF;" d="M418.133,341.333v-25.6c0-23.561,19.106-42.667,42.667-42.667l0,0
	c23.561,0,42.667,19.106,42.667,42.667v25.6"/>
<path style="fill:#4D97FF;" d="M426.667,332.8c-2.884,0-5.717-0.179-8.533-0.427v8.96h85.333v-25.6
	c-0.017-6.11-1.357-12.134-3.934-17.673C481.732,320.051,454.955,332.817,426.667,332.8z"/>
<path style="fill:#B7E5FF;" d="M8.533,503.467v-25.6c0-23.561,19.106-42.667,42.667-42.667l0,0
	c23.561,0,42.667,19.106,42.667,42.667v25.6"/>
<path style="fill:#96D0EA;" d="M17.067,494.933c-2.884,0-5.717-0.179-8.533-0.427v8.96h85.333v-25.6
	c-0.017-6.11-1.357-12.134-3.934-17.673C72.132,482.185,45.355,494.95,17.067,494.933z"/>
<path style="fill:#B7E5FF;" d="M145.067,503.467v-25.6c0-23.561,19.106-42.667,42.667-42.667l0,0
	c23.561,0,42.667,19.106,42.667,42.667v25.6"/>
<path style="fill:#96D0EA;" d="M153.6,494.933c-2.884,0-5.717-0.179-8.533-0.427v8.96H230.4v-25.6
	c-0.017-6.11-1.357-12.134-3.934-17.673C208.666,482.185,181.888,494.95,153.6,494.933z"/>
<path style="fill:#B7E5FF;" d="M281.6,503.467v-25.6c0-23.561,19.106-42.667,42.667-42.667l0,0
	c23.561,0,42.667,19.106,42.667,42.667v25.6"/>
<path style="fill:#96D0EA;" d="M290.133,494.933c-2.884,0-5.717-0.179-8.533-0.427v8.96h85.333v-25.6
	c-0.017-6.11-1.357-12.134-3.934-17.673C345.199,482.185,318.421,494.95,290.133,494.933z"/>
<path style="fill:#B7E5FF;" d="M418.133,503.467v-25.6c0-23.561,19.106-42.667,42.667-42.667l0,0
	c23.561,0,42.667,19.106,42.667,42.667v25.6"/>
<path style="fill:#96D0EA;" d="M426.667,494.933c-2.884,0-5.717-0.179-8.533-0.427v8.96h85.333v-25.6
	c-0.017-6.11-1.357-12.134-3.934-17.673C481.732,482.185,454.955,494.95,426.667,494.933z"/>
<path d="M51.2,349.867c-18.85,0-34.133,15.283-34.133,34.133S32.35,418.133,51.2,418.133S85.333,402.85,85.333,384
	S70.05,349.867,51.2,349.867z M51.2,401.067c-9.429,0-17.067-7.637-17.067-17.067c0-9.429,7.637-17.067,17.067-17.067
	S68.267,374.571,68.267,384C68.267,393.429,60.629,401.067,51.2,401.067z"/>
<path d="M8.533,512c4.71,0,8.533-3.823,8.533-8.533v-25.6c0-18.85,15.283-34.133,34.133-34.133s34.133,15.283,34.133,34.133v25.6
	c0,4.71,3.823,8.533,8.533,8.533c4.71,0,8.533-3.823,8.533-8.533v-25.6c0-28.279-22.921-51.2-51.2-51.2S0,449.587,0,477.867v25.6
	C0,508.177,3.823,512,8.533,512z"/>
<path d="M221.867,384c0-18.85-15.283-34.133-34.133-34.133S153.6,365.15,153.6,384s15.283,34.133,34.133,34.133
	S221.867,402.85,221.867,384z M170.667,384c0-9.429,7.637-17.067,17.067-17.067c9.429,0,17.067,7.637,17.067,17.067
	c0,9.429-7.637,17.067-17.067,17.067C178.304,401.067,170.667,393.429,170.667,384z"/>
<path d="M230.4,512c4.71,0,8.533-3.823,8.533-8.533v-25.6c0-28.279-22.921-51.2-51.2-51.2s-51.2,22.921-51.2,51.2v25.6
	c0,4.71,3.823,8.533,8.533,8.533c4.71,0,8.533-3.823,8.533-8.533v-25.6c0-18.85,15.283-34.133,34.133-34.133
	s34.133,15.283,34.133,34.133v25.6C221.867,508.177,225.69,512,230.4,512z"/>
<path d="M358.4,384c0-18.85-15.283-34.133-34.133-34.133S290.133,365.15,290.133,384s15.283,34.133,34.133,34.133
	S358.4,402.85,358.4,384z M307.2,384c0-9.429,7.637-17.067,17.067-17.067c9.429,0,17.067,7.637,17.067,17.067
	c0,9.429-7.637,17.067-17.067,17.067C314.837,401.067,307.2,393.429,307.2,384z"/>
<path d="M366.933,512c4.71,0,8.533-3.823,8.533-8.533v-25.6c0-28.279-22.921-51.2-51.2-51.2c-28.279,0-51.2,22.921-51.2,51.2v25.6
	c0,4.71,3.823,8.533,8.533,8.533s8.533-3.823,8.533-8.533v-25.6c0-18.85,15.283-34.133,34.133-34.133s34.133,15.283,34.133,34.133
	v25.6C358.4,508.177,362.223,512,366.933,512z"/>
<path d="M494.933,384c0-18.85-15.283-34.133-34.133-34.133S426.667,365.15,426.667,384s15.283,34.133,34.133,34.133
	S494.933,402.85,494.933,384z M443.733,384c0-9.429,7.637-17.067,17.067-17.067s17.067,7.637,17.067,17.067
	c0,9.429-7.637,17.067-17.067,17.067S443.733,393.429,443.733,384z"/>
<path d="M460.8,426.667c-28.262,0.026-51.174,22.938-51.2,51.2v25.6c0,4.71,3.823,8.533,8.533,8.533s8.533-3.823,8.533-8.533v-25.6
	c0-18.85,15.283-34.133,34.133-34.133s34.133,15.283,34.133,34.133v25.6c0,4.71,3.823,8.533,8.533,8.533
	c4.71,0,8.533-3.823,8.533-8.533v-25.6C511.974,449.604,489.062,426.692,460.8,426.667z"/>
<path d="M51.2,187.733c-18.85,0-34.133,15.283-34.133,34.133S32.35,256,51.2,256s34.133-15.283,34.133-34.133
	S70.05,187.733,51.2,187.733z M51.2,238.933c-9.429,0-17.067-7.637-17.067-17.067c0-9.429,7.637-17.067,17.067-17.067
	s17.067,7.637,17.067,17.067C68.267,231.296,60.629,238.933,51.2,238.933z"/>
<path d="M8.533,349.867c4.71,0,8.533-3.823,8.533-8.533v-25.6c0-18.85,15.283-34.133,34.133-34.133s34.133,15.283,34.133,34.133
	v25.6c0,4.71,3.823,8.533,8.533,8.533c4.71,0,8.533-3.823,8.533-8.533v-25.6c0-28.279-22.921-51.2-51.2-51.2S0,287.454,0,315.733
	v25.6C0,346.044,3.823,349.867,8.533,349.867z"/>
<path d="M221.867,221.867c0-18.85-15.283-34.133-34.133-34.133S153.6,203.017,153.6,221.867S168.883,256,187.733,256
	S221.867,240.717,221.867,221.867z M170.667,221.867c0-9.429,7.637-17.067,17.067-17.067c9.429,0,17.067,7.637,17.067,17.067
	c0,9.429-7.637,17.067-17.067,17.067C178.304,238.933,170.667,231.296,170.667,221.867z"/>
<path d="M238.933,315.733c0-28.279-22.921-51.2-51.2-51.2s-51.2,22.921-51.2,51.2v25.6c0,4.71,3.823,8.533,8.533,8.533
	c4.71,0,8.533-3.823,8.533-8.533v-25.6c0-18.85,15.283-34.133,34.133-34.133s34.133,15.283,34.133,34.133v25.6
	c0,4.71,3.823,8.533,8.533,8.533s8.533-3.823,8.533-8.533V315.733z"/>
<path d="M358.4,221.867c0-18.85-15.283-34.133-34.133-34.133s-34.133,15.283-34.133,34.133S305.417,256,324.267,256
	S358.4,240.717,358.4,221.867z M307.2,221.867c0-9.429,7.637-17.067,17.067-17.067c9.429,0,17.067,7.637,17.067,17.067
	c0,9.429-7.637,17.067-17.067,17.067C314.837,238.933,307.2,231.296,307.2,221.867z"/>
<path d="M375.467,315.733c0-28.279-22.921-51.2-51.2-51.2c-28.279,0-51.2,22.921-51.2,51.2v25.6c0,4.71,3.823,8.533,8.533,8.533
	s8.533-3.823,8.533-8.533v-25.6c0-18.85,15.283-34.133,34.133-34.133s34.133,15.283,34.133,34.133v25.6
	c0,4.71,3.823,8.533,8.533,8.533s8.533-3.823,8.533-8.533V315.733z"/>
<path d="M460.8,256c18.85,0,34.133-15.283,34.133-34.133s-15.283-34.133-34.133-34.133s-34.133,15.283-34.133,34.133
	S441.95,256,460.8,256z M460.8,204.8c9.429,0,17.067,7.637,17.067,17.067c0,9.429-7.637,17.067-17.067,17.067
	s-17.067-7.637-17.067-17.067C443.733,212.437,451.371,204.8,460.8,204.8z"/>
<path d="M460.8,264.533c-28.262,0.026-51.174,22.938-51.2,51.2v25.6c0,4.71,3.823,8.533,8.533,8.533s8.533-3.823,8.533-8.533v-25.6
	c0-18.85,15.283-34.133,34.133-34.133s34.133,15.283,34.133,34.133v25.6c0,4.71,3.823,8.533,8.533,8.533
	c4.71,0,8.533-3.823,8.533-8.533v-25.6C511.974,287.471,489.062,264.559,460.8,264.533z"/>
<path d="M443.733,162.133V8.533c0-4.71-3.823-8.533-8.533-8.533H76.8c-4.71,0-8.533,3.823-8.533,8.533v153.6
	c0,4.71,3.823,8.533,8.533,8.533h358.4C439.91,170.667,443.733,166.844,443.733,162.133z M426.667,153.6H85.333V17.067h341.333
	V153.6z"/>
<path d="M341.333,128c33.493,0,59.733-18.773,59.733-42.667s-26.24-42.667-59.733-42.667S281.6,61.44,281.6,85.333
	S307.84,128,341.333,128z M384,85.333c-0.768,7.791-5.555,14.609-12.621,17.971l-21.513-21.504V60.279
	C369.075,62.729,384,73.207,384,85.333z M332.8,60.279v25.054c0,2.261,0.896,4.437,2.5,6.033l18.313,18.313
	c-4.045,0.802-8.158,1.22-12.279,1.254c-23.125,0-42.667-11.725-42.667-25.6C298.667,73.207,313.591,62.729,332.8,60.279z"/>
<g>
</g>
<g>
</g>
<g>
</g>
<g>
</g>
<g>
</g>
<g>
</g>
<g>
</g>
<g>
</g>
<g>
</g>
<g>
</g>
<g>
</g>
<g>
</g>
<g>
</g>
<g>
</g>
<g>
</g>
</svg>
