<?xml version="1.0"?>
<svg xmlns="http://www.w3.org/2000/svg" viewBox="0 0 64 64" width="512" height="512"><path d="m3 3h58v36h-58z" fill="#ebebeb"/><g fill="#10bde0"><path d="m17.691 40.287a1 1 0 0 0 1.546.618l2.763-1.905h-2v-11h-6v9h3z"/><path d="m24 24h6v15h-6z"/><path d="m34 16h6v23h-6z"/><path d="m44 11h6v28h-6z"/></g><path d="m6.905 53.237-1.905 2.763 3 3 2.763-1.9a1 1 0 0 1 1.546.618l.691 3.282h4l.691-3.287a1 1 0 0 1 1.546-.618l2.763 1.905 3-3-1.9-2.763a1 1 0 0 1 .618-1.546l3.282-.691v-4l-3.287-.691a1 1 0 0 1 -.618-1.546l1.905-2.763-3-3-2.763 1.905a1 1 0 0 1 -1.546-.618l-.691-3.287h-4l-.691 3.287a1 1 0 0 1 -1.546.618l-2.763-1.905-3 3 1.905 2.763a1 1 0 0 1 -.618 1.546l-3.287.691v4l3.287.691a1 1 0 0 1 .618 1.546zm8.095-9.237a5 5 0 1 1 -5 5 5 5 0 0 1 5-5z" fill="#f0be59"/><path d="m56.526 49.677 3.889.556.848-5.94-3.889-.556a2 2 0 0 1 -.917-3.58l3.143-2.357-3.6-4.8-3.143 2.357a2 2 0 0 1 -3.18-1.883l.556-3.889-.233-.033-5.707-.815-.556 3.889a2 2 0 0 1 -3.58.917l-2.357-3.143-3.8 2.85-1 .75 2.357 3.143a2 2 0 0 1 -1.883 3.18l-3.889-.556-.848 5.94 3.889.556a2 2 0 0 1 .917 3.58l-3.143 2.357 3.6 4.8 3.143-2.357a2 2 0 0 1 3.18 1.883l-.556 3.889 5.94.848.556-3.889a2 2 0 0 1 3.58-.917l2.357 3.143 4.8-3.6-2.357-3.143a2 2 0 0 1 1.883-3.18zm-11.526 2.323a7 7 0 1 1 7-7 7 7 0 0 1 -7 7z" fill="#f2a811"/><path d="m61.405 43.3-3.889-.555a1 1 0 0 1 -.459-1.791l1.275-.954h2.668a1 1 0 0 0 1-1v-36a1 1 0 0 0 -1-1h-58a1 1 0 0 0 -1 1v36a1 1 0 0 0 1 1h2.586l-1.293 1.293a1 1 0 0 0 -.116 1.274l1.9 2.764-3.287.69a1 1 0 0 0 -.79.979v4a1 1 0 0 0 .794.979l3.287.691-1.9 2.763a1 1 0 0 0 .116 1.274l3 3a1 1 0 0 0 1.274.116l2.763-1.9.691 3.287a1 1 0 0 0 .975.79h4a1 1 0 0 0 .979-.794l.691-3.288 2.763 1.905a1 1 0 0 0 1.274-.116l3-3a1 1 0 0 0 .116-1.274l-1.9-2.764 3.287-.69a1 1 0 0 0 .79-.979v-4a1 1 0 0 0 -.794-.979l-3.287-.691 1.9-2.763a1 1 0 0 0 -.116-1.274l-1.289-1.293h4.127l-.8 5.565a1 1 0 0 0 .859 1.135l3.889.555a1 1 0 0 1 .459 1.791l-3.148 2.354a1 1 0 0 0 -.2 1.4l3.6 4.8a1 1 0 0 0 1.4.2l3.143-2.358a1 1 0 0 1 1.59.942l-.556 3.889a1 1 0 0 0 .849 1.132l5.939.848a.97.97 0 0 0 .142.011 1 1 0 0 0 .99-.859l.556-3.889a1 1 0 0 1 1.79-.459l2.357 3.143a1 1 0 0 0 1.4.2l4.8-3.6a1 1 0 0 0 .2-1.4l-2.358-3.143a1 1 0 0 1 .942-1.59l3.889.555a1 1 0 0 0 1.132-.848l.849-5.939a1 1 0 0 0 -.849-1.132zm-57.405-39.3h56v32.667l-3.2-4.267a1 1 0 0 0 -1.4-.2l-3.143 2.358a1 1 0 0 1 -1.59-.942l.556-3.889a.988.988 0 0 0 -.223-.771v-17.956a1 1 0 0 0 -1-1h-6a1 1 0 0 0 -1 1v19.714l-.253 1.77a.992.992 0 0 1 -1.747.5v-16.984a1 1 0 0 0 -1-1h-6a1 1 0 0 0 -1 1v16.75l-.6.45a1 1 0 0 0 -.2 1.4l2.358 3.143a1 1 0 0 1 -.942 1.59l-2.616-.373v-14.96a1 1 0 0 0 -1-1h-6a1 1 0 0 0 -1 1v14h-2v-10a1 1 0 0 0 -1-1h-6a1 1 0 0 0 -1 1v8a1 1 0 0 0 -.979.794l-.691 3.288-2.763-1.905a.98.98 0 0 0 -.567-.166v-.011h-4zm45 24.4-4-.572v-15.828h4zm-10 1.934-.4-.534a1 1 0 0 0 -1.4-.2l-2.2 1.65v-14.25h4zm-19.733 9.335-.6.412-.691-3.287a1 1 0 0 0 -.976-.794h-2v-7h4v10a.988.988 0 0 0 .267.669zm6.733 8.143v2.376l-2.493.524a2 2 0 0 0 -1.235 3.093l1.428 2.077-1.818 1.818-2.077-1.432a2 2 0 0 0 -3.092 1.235l-.525 2.497h-2.376l-.525-2.492a2 2 0 0 0 -3.087-1.236l-2.082 1.428-1.818-1.818 1.432-2.077a2 2 0 0 0 -1.235-3.093l-2.497-.524v-2.376l2.493-.524a2 2 0 0 0 1.235-3.088l-1.428-2.082 1.818-1.818 2.082 1.428a2 2 0 0 0 3.092-1.235l.52-2.493h2.376l.525 2.492a2 2 0 0 0 3.092 1.236l2.077-1.428 1.818 1.818-1.428 2.082a2 2 0 0 0 1.235 3.093zm-1-22.812h4v13h-4zm34.566 24.1-2.9-.414a3 3 0 0 0 -2.824 4.77l1.758 2.344-3.2 2.4-1.757-2.343a3 3 0 0 0 -5.371 1.375l-.414 2.9-3.958-.566.414-2.9a3 3 0 0 0 -4.769-2.824l-2.345 1.758-2.4-3.2 2.342-1.757a3 3 0 0 0 -1.375-5.37l-2.9-.415.566-3.959 2.9.414a3 3 0 0 0 2.824-4.77l-1.757-2.343 3.2-2.4 1.757 2.343a3 3 0 0 0 5.371-1.375l.414-2.9 3.959.566-.414 2.9a3 3 0 0 0 4.769 2.824l2.344-1.758 2.4 3.2-2.342 1.757a3 3 0 0 0 1.375 5.37l2.9.415z"/><path d="m15 43a6 6 0 1 0 6 6 6.006 6.006 0 0 0 -6-6zm0 10a4 4 0 1 1 4-4 4 4 0 0 1 -4 4z"/><path d="m45 37a8 8 0 1 0 8 8 8.009 8.009 0 0 0 -8-8zm0 14a6 6 0 1 1 6-6 6.006 6.006 0 0 1 -6 6z"/><path d="m13.506 24.863 27.076-15.872-.562 2.809 1.96.392 1-5a1 1 0 0 0 -.78-1.172l-5-1-.4 1.96 2.424.486-26.73 15.671z"/><path d="m6 29h2v7h-2z"/><path d="m6 25h2v2h-2z"/><path d="m56 15h2v15h-2z"/><path d="m56 11h2v2h-2z"/><path d="m25 59h2v2h-2z"/><path d="m29 59h2v2h-2z"/><path d="m33 59h2v2h-2z"/></svg>
