<?xml version="1.0" encoding="iso-8859-1"?>
<!-- Generator: Adobe Illustrator 19.0.0, SVG Export Plug-In . SVG Version: 6.00 Build 0)  -->
<svg version="1.1" id="Layer_1" xmlns="http://www.w3.org/2000/svg" xmlns:xlink="http://www.w3.org/1999/xlink" x="0px" y="0px"
	 viewBox="0 0 512 512" style="enable-background:new 0 0 512 512;" xml:space="preserve">
<path style="fill:#ECB45C;" d="M295.983,104.979c7.318-46.305,47.411-81.706,95.775-81.706c53.555,0,96.97,43.411,96.97,96.97
	c0,39.92-24.125,74.209-58.591,89.079"/>
<path style="fill:#D5851F;" d="M430.147,232.598c-9.01,0.002-17.583-5.261-21.378-14.06c-5.092-11.802,0.348-25.496,12.148-30.588
	c27.055-11.672,44.538-38.25,44.538-67.708c0-40.636-33.061-73.697-73.697-73.697c-36.492,0-67.103,26.103-72.788,62.067
	c-2.008,12.698-13.939,21.358-26.621,19.355c-12.696-2.008-21.361-13.926-19.355-26.621c4.425-27.986,18.733-53.631,40.29-72.212
	C335.081,10.346,362.951,0,391.758,0C458.058,0,512,53.942,512,120.242c0,48.055-28.515,91.408-72.643,110.446
	C436.351,231.984,433.225,232.598,430.147,232.598z"/>
<path style="fill:#F4D8AA;" d="M81.863,209.321c-34.462-14.87-58.59-49.16-58.59-89.079c0-53.558,43.414-96.97,96.97-96.97
	c48.361,0,88.455,35.401,95.775,81.707"/>
<g>
	<path style="fill:#ECB45C;" d="M81.85,232.6c-3.077,0-6.203-0.613-9.21-1.911C28.514,211.648,0,168.296,0,120.242
		C0,53.942,53.942,0,120.242,0c28.805,0,56.675,10.347,78.471,29.133c21.558,18.581,35.866,44.226,40.293,72.212
		c2.006,12.696-6.658,24.615-19.354,26.622c-12.682,2.009-24.613-6.656-26.622-19.352c-5.686-35.966-36.296-62.07-72.788-62.07
		c-40.636,0-73.697,33.061-73.697,73.697c0,29.459,17.482,56.036,44.536,67.711c11.801,5.092,17.24,18.787,12.148,30.588
		C99.435,227.337,90.86,232.6,81.85,232.6z"/>
	<path style="fill:#ECB45C;" d="M256,77.576c-119.771,0-217.212,97.441-217.212,217.212c0,41.759,11.888,82.325,34.377,117.312
		c4.282,6.662,11.658,10.688,19.577,10.688s15.293-4.026,19.577-10.688C143.926,362.93,197.64,333.576,256,333.576
		c58.362,0,112.074,29.355,143.68,78.524c4.282,6.662,11.658,10.688,19.577,10.688c7.919,0,15.295-4.026,19.577-10.688
		c22.491-34.987,34.378-75.553,34.378-117.312C473.212,175.017,375.771,77.576,256,77.576z"/>
</g>
<path style="fill:#F4D8AA;" d="M438.835,386.931C398.625,324.377,330.276,287.03,256,287.03
	c-74.273,0-142.623,37.346-182.835,99.901c-4.928,7.664-4.928,17.503,0,25.169C113.379,474.653,181.727,512,256,512
	c74.274,0,142.623-37.346,182.835-99.901C443.763,404.433,443.763,394.597,438.835,386.931z"/>
<path style="fill:#D5851F;" d="M256,77.576v256c58.362,0,112.074,29.355,143.68,78.524c4.282,6.662,11.658,10.688,19.577,10.688
	c7.919,0,15.295-4.026,19.577-10.688c22.491-34.987,34.378-75.553,34.378-117.312C473.212,175.017,375.771,77.576,256,77.576z"/>
<path style="fill:#ECB45C;" d="M438.835,386.931C398.625,324.377,330.276,287.03,256,287.03V512
	c74.274,0,142.623-37.346,182.835-99.901C443.763,404.433,443.763,394.597,438.835,386.931z"/>
<g>
	<path style="fill:#57575C;" d="M256.005,364.608c-6.127,0-12.131-2.482-16.46-6.827c-4.329-4.329-6.813-10.318-6.813-16.446
		c0-6.129,2.484-12.133,6.813-16.462c4.329-4.329,10.333-6.811,16.46-6.811c6.115,0,12.119,2.482,16.448,6.811
		c4.344,4.344,6.825,10.333,6.825,16.462c0,6.113-2.482,12.117-6.825,16.446C268.124,362.125,262.133,364.608,256.005,364.608z"/>
	<path style="fill:#57575C;" d="M193.944,256.002c-6.127,0-12.131-2.482-16.46-6.811c-4.329-4.344-6.813-10.333-6.813-16.462
		c0-6.128,2.484-12.117,6.813-16.462c4.329-4.329,10.333-6.811,16.46-6.811c6.115,0,12.119,2.482,16.448,6.811
		c4.344,4.344,6.825,10.333,6.825,16.462c0,6.128-2.482,12.117-6.825,16.462C206.063,253.519,200.057,256.002,193.944,256.002z"/>
	<path style="fill:#57575C;" d="M318.065,256.002c-6.127,0-12.131-2.482-16.46-6.811c-4.329-4.344-6.813-10.333-6.813-16.462
		c0-6.128,2.484-12.133,6.813-16.462c4.329-4.329,10.333-6.811,16.46-6.811c6.128,0,12.119,2.482,16.448,6.811
		c4.344,4.329,6.825,10.333,6.825,16.462c0,6.128-2.482,12.117-6.825,16.462C330.184,253.519,324.194,256.002,318.065,256.002z"/>
</g>
<g>
</g>
<g>
</g>
<g>
</g>
<g>
</g>
<g>
</g>
<g>
</g>
<g>
</g>
<g>
</g>
<g>
</g>
<g>
</g>
<g>
</g>
<g>
</g>
<g>
</g>
<g>
</g>
<g>
</g>
</svg>
